<svg role="img" viewBox="0 0 24 24" xmlns="http://www.w3.org/2000/svg"><title>Microsoft PowerPoint</title><path d="M23.515 3.493L13.1 1.706C12.87 1.666 12.632 1.83 12.632 2.06v19.878c0 .23.238.394.468.354l10.415-1.787c.27-.046.485-.277.485-.552V4.045c0-.275-.215-.506-.485-.552zM11.663 8.358l-4.475-.485c-.87-.094-1.543-.342-2.016-.745-.474-.402-.71-1.01-.71-1.821 0-.878.28-1.565.84-2.06.56-.495 1.39-.756 2.489-.782l2.428-.06v9.03h1.444v-3.136zm-1.444-1.343l-2.66.182c-.605.044-1.038.17-1.298.376-.26.207-.39.56-.39 1.057 0 .548.135.938.405 1.168.27.23.702.353 1.296.372l2.66.083v-3.238z"/></svg>