<svg role="img" viewBox="0 0 24 24" xmlns="http://www.w3.org/2000/svg"><title>Microsoft Word</title><path d="M23.515 3.493L13.1 1.706C12.87 1.666 12.632 1.83 12.632 2.06v19.878c0 .23.238.394.468.354l10.415-1.787c.27-.046.485-.277.485-.552V4.045c0-.275-.215-.506-.485-.552zM2.85 7.15l1.92.052c.28.006.517.202.57.478l1.378 6.51h.023l1.173-6.505c.046-.264.275-.465.543-.465h1.564c.272 0 .502.206.545.474L11.535 14.2h.023l1.242-6.53c.05-.272.285-.466.56-.466l1.884-.047c.286-.007.5.244.473.53l-2.096 9.875c-.05.24-.263.413-.508.413H11.23c-.272 0-.505-.198-.55-.467L9.585 11.22h-.024l-1.196 6.31c-.05.267-.282.464-.553.464H5.972c-.25 0-.466-.178-.51-.424L3.488 7.68c-.025-.285.195-.535.482-.53h-.01z"/></svg>